<?xml version="1.0"?>
<svg xmlns="http://www.w3.org/2000/svg" xmlns:xlink="http://www.w3.org/1999/xlink" xmlns:svgjs="http://svgjs.com/svgjs" version="1.1" width="512" height="512" x="0" y="0" viewBox="0 0 512 512" style="enable-background:new 0 0 512 512" xml:space="preserve" class=""><g>
<g xmlns="http://www.w3.org/2000/svg">
	<g>
		<path d="M502.707,381.47c-4.04-1.03-8.171,1.414-9.212,5.464c-14.242,55.776-74.896,89.077-162.246,89.077H180.74    c-43.382,0-81.421-8.484-110.026-24.544c-3.646-2.04-8.262-0.747-10.313,2.899c-2.04,3.646-0.747,8.262,2.899,10.313    c30.857,17.323,71.472,26.484,117.44,26.484H331.25c76.221,0,158.066-26.633,176.932-100.481    C509.212,386.631,506.768,382.51,502.707,381.47z" fill="#ffffff" data-original="#000000" style="" class=""/>
	</g>
</g>
<g xmlns="http://www.w3.org/2000/svg">
	<g>
		<g>
			<path d="M285.607,294.827c0.002-0.001,0.01-0.008,0.014-0.011C285.632,294.807,285.63,294.808,285.607,294.827z" fill="#ffffff" data-original="#000000" style="" class=""/>
			<path d="M478.195,321.247c3.498-5.723,5.606-12.384,5.836-19.501c22.244-12.847,25.184-50.693,4.717-68.048     c7.171-12.617,7.265-29.062-1.828-42.2c14.454-4.081,25.08-17.393,25.08-33.13c0-86.766-99.135-120.557-185.558-132.288     c-4.141-0.566-7.969,2.333-8.535,6.485c-0.555,4.141,2.343,7.959,6.495,8.525c76.536,10.393,172.448,39.708,172.448,117.278     c0,10.616-8.646,19.262-19.262,19.262c-406.63,0-36.534,0-443.174,0c-10.616,0-19.262-8.646-19.262-19.262     c0-49.725,38.645-85.36,114.864-105.915c40.498-10.923,90.751-16.366,126.278-16.464c1.657,0,16.737,0.05,38.291,1.848     c4.192,0.343,7.828-2.757,8.182-6.919c0.343-4.172-2.758-7.838-6.919-8.182c-13.095-1.09-26.944-1.834-40.14-1.899     c-66.052,0-163.688,15.17-215.476,57.058C13.535,99.491,0,126.571,0,158.368c0,15.676,10.545,28.938,24.908,33.079     c-8.393,12.368-9.289,28.795-1.586,42.13c-14.125,11.998-18.731,36.448-7.979,55.149c1.97,3.202,6.798,8.192,12.606,11.757     c0.017,7.597,2.156,14.701,5.853,20.757C14.483,325.149,0,340.663,0,359.158c0,35.029,12.565,64.27,37.332,86.916     c1.444,1.323,3.283,1.98,5.101,1.98c6.884,0,10.207-8.51,5.121-13.161c-21.494-19.656-32.403-45.14-32.403-75.734     c0-13.08,12.646-23.726,28.181-23.726h43.271l-0.111,37.312c-0.063,21.238,17.101,38.322,38.19,38.322h0.798     c21.565,0,39.11-17.474,39.11-38.958v-25.161c0-1.768,1.434-3.192,3.192-3.192c6.414,0,12.07-3.313,15.343-8.323h47.301     c4.485,3.313,17.568,23.888,45.988,23.888c28.353,0,41.53-20.588,45.998-23.888h146.257c15.383,0,28.029,10.535,28.181,23.494     c0.04,4.151,3.424,7.485,7.565,7.485h0.091c4.182-0.04,7.535-3.475,7.495-7.656C511.783,340.477,497.319,325.143,478.195,321.247     z M266.202,192.78H466.78c22.056,13.599,11.456,45.584-12.979,45.584c-162.792,0-12.686-0.42-237.598,0     C231.391,230.289,236.114,221.837,266.202,192.78z M28.312,280.888c-7.018-12.53-3.414-28.788,4.909-35.827     c7.03,5.606,15.949,8.99,25.595,8.99H98.43c7.202,0,13.111,5.626,13.565,12.717c-3.05-1.091-6.212-1.636-9.383-1.636     c-11.413,0-16.081,5.029-48.907,26.494C42.555,292.528,33.269,287.545,28.312,280.888z M87.885,320.28H52.997     c-4.492-3.407-7.803-8.291-9.18-13.929c4.044,0.635,13.218,1.193,16.656-1.05l34.766-22.726     c8.926-5.845,16.103,1.142,16.787,1.404v17.898c0,2.828-2.293,5.121-5.121,5.121C98.198,306.998,90.744,312.533,87.885,320.28z      M170.963,296.837c0,14.874,0,3.16,0,28.575c0,1.757-1.424,3.192-3.182,3.192c-10.148,0-18.343,8.276-18.343,18.343v25.161     c0,21.599-26.621,31.521-41.079,17.03c-7.903-7.94-6.708-18.03-6.716-16.797c0.034-10.996,0.074-23.72,0.14-45.089     c0.01-2.808,2.303-5.101,5.121-5.101c11.095,0,20.272-9.014,20.272-20.272c0-14.923,0-19.302,0-34.231     c0-11.515-6.808-21.474-16.616-26.049c-9.554-4.502-15.217-1.968-51.745-2.697c-25.418,0-35.287-32.663-13.969-46.119h54.19     l32.898,32.898c12.728,12.738,29.405,20.094,47.273,20.926C167.979,255.665,171.625,268.203,170.963,296.837z M142.651,214.971     L120.46,192.78h124.328l-22.181,22.191C200.451,237.107,164.701,237.041,142.651,214.971z M186.114,320.28v-15.969l7.353-5.838     l21.807,21.807H186.114z M300.746,335.431c-15.002,12.46-37.273,11.622-51.321-2.424c-10.926-10.927-33.102-33.102-44.018-44.018     c2.694-1.34,11.245-12.898,22.302-4.707l31.615,23.433c10.772,8.008,24.769,7.874,35.554-0.899l27.716-22.545     c5.03-4.091,10.929-4.475,16.181-1.04l9.262,6.05C295.797,340.418,302.189,334.243,300.746,335.431z M459.011,320.28H337.562     l22.878-22.878l9.444,6.171c1.727,0.783,11.051,9.489,25.009,6.424c13.93-3.043,20.588-15.659,20.868-15.969     c5.078-8.065,13.755-11.276,21.413-5.616c12.475,8.239,18.54,16.596,31.181,17.221     C467.092,311.579,463.691,316.732,459.011,320.28z M461.618,287.635c-16.117-11.903-15.481-11.463-16.393-12.09     c-13.924-9.509-32.114-5.682-42.291,10.414c-0.261,0.303-4.052,7.661-11.262,9.232c-6.673,1.47-7.409-0.301-44.614-24.635     c-10.808-7.07-23.837-6.323-34.019,1.959c-15.833,12.878-27.568,22.42-27.275,22.185c-0.091,0.074-0.126,0.102-0.143,0.116     c-0.01,0.008-0.029,0.024-0.056,0.047c-0.014,0.011-0.03,0.024-0.045,0.037c-0.004,0.003-0.007,0.006-0.01,0.009     c-0.01,0.008-0.019,0.016-0.029,0.024c-0.056,0.045-0.142,0.116-0.156,0.126c-5.262,4.283-11.616,4.464-16.979,0.485     c-31.573-23.403-36.319-29.187-48.614-29.272c-10.404-0.074-16.961,5.035-25.1,11.939l-8.515,6.757v-17.323     c0-20.052,4.304-13.595,267.686-13.595c9.262,0,18.03-3.111,25.13-8.828c7.401,6.394,10.906,19.653,6.636,31.544     C481.481,288.156,471.003,294.557,461.618,287.635z" fill="#ffffff" data-original="#000000" style="" class=""/>
		</g>
	</g>
</g>
<g xmlns="http://www.w3.org/2000/svg">
	<g>
		<path d="M395.034,70.16C395.034,70.159,395.034,70.159,395.034,70.16c-4.301-4.554-24.731-18.973-34.895-9.365    c-4.498,4.248-4.952,11.135-1.352,20.469c4.266,11.058,10.702,20.832,22.5,20.832C397.719,102.095,406.472,82.264,395.034,70.16z     M381.167,86.942c-0.585-0.017-1.705-0.192-2.641-1.183c-2.257-2.39-5.198-8.281-6.42-12.3c3.943,1.448,9.659,4.716,11.918,7.106    C386.326,83.004,384.533,87.023,381.167,86.942z" fill="#ffffff" data-original="#000000" style="" class=""/>
	</g>
</g>
<g xmlns="http://www.w3.org/2000/svg">
	<g>
		<path d="M336.4,128.775v0.001c-2.245-5.847-15.643-26.956-28.706-21.942c-13.06,5.016-8.887,29.669-6.641,35.516    c1.813,4.721,5.355,8.453,9.975,10.51C326.3,159.654,342.467,144.565,336.4,128.775z M320.08,139.093    c-1.958,0.75-4.138-0.233-4.885-2.174c-1.179-3.07-1.654-9.637-1.255-13.82c3.095,2.84,7.136,8.038,8.316,11.108v0.001    C323.003,136.154,322.033,138.342,320.08,139.093z" fill="#ffffff" data-original="#000000" style="" class=""/>
	</g>
</g>
<g xmlns="http://www.w3.org/2000/svg">
	<g>
		<path d="M256,54.006c-13.99,0-18.933,24.509-18.933,30.774c0,10.44,8.493,18.933,18.933,18.933s18.933-8.493,18.933-18.933    C274.933,78.516,269.99,54.006,256,54.006z M256,88.561c-2.085,0-3.782-1.697-3.782-3.782c0-3.288,1.91-9.59,3.782-13.351    c1.873,3.761,3.782,10.063,3.782,13.351C259.782,86.864,258.085,88.561,256,88.561z" fill="#ffffff" data-original="#000000" style="" class=""/>
	</g>
</g>
<g xmlns="http://www.w3.org/2000/svg">
	<g>
		<path d="M201.611,105.971c-5.991-1.544-12.063,1.732-18.051,9.746c-6.891,9.225-11.825,19.703-5.954,29.664    c8.553,14.512,30.447,11.353,34.64-4.881C213.813,134.435,215.158,109.472,201.611,105.971z M197.577,136.713    c-0.062,0.101-0.272,1.447-1.741,2.313c-2.905,1.715-6.417-0.967-5.581-4.204c0.822-3.183,4.247-8.808,7-11.98    C198.127,126.951,198.399,133.529,197.577,136.713z" fill="#ffffff" data-original="#000000" style="" class=""/>
	</g>
</g>
<g xmlns="http://www.w3.org/2000/svg">
	<g>
		<path d="M145.629,56.494c-11.739-5.689-26.942,12.187-30.455,19.44c-6.092,12.577,3.145,27.185,17.007,27.185    c7.034,0,13.802-3.934,17.069-10.677C152.551,85.629,157.613,62.3,145.629,56.494z M135.615,85.835    c-0.91,1.877-3.176,2.662-5.051,1.755c-1.877-0.909-2.664-3.177-1.755-5.053c1.433-2.958,5.9-7.798,9.224-10.366    C138.076,76.372,137.048,82.877,135.615,85.835z" fill="#ffffff" data-original="#000000" style="" class=""/>
	</g>
</g>
<g xmlns="http://www.w3.org/2000/svg">
</g>
<g xmlns="http://www.w3.org/2000/svg">
</g>
<g xmlns="http://www.w3.org/2000/svg">
</g>
<g xmlns="http://www.w3.org/2000/svg">
</g>
<g xmlns="http://www.w3.org/2000/svg">
</g>
<g xmlns="http://www.w3.org/2000/svg">
</g>
<g xmlns="http://www.w3.org/2000/svg">
</g>
<g xmlns="http://www.w3.org/2000/svg">
</g>
<g xmlns="http://www.w3.org/2000/svg">
</g>
<g xmlns="http://www.w3.org/2000/svg">
</g>
<g xmlns="http://www.w3.org/2000/svg">
</g>
<g xmlns="http://www.w3.org/2000/svg">
</g>
<g xmlns="http://www.w3.org/2000/svg">
</g>
<g xmlns="http://www.w3.org/2000/svg">
</g>
<g xmlns="http://www.w3.org/2000/svg">
</g>
</g></svg>
