<?xml version="1.0"?>
<svg xmlns="http://www.w3.org/2000/svg" xmlns:xlink="http://www.w3.org/1999/xlink" xmlns:svgjs="http://svgjs.com/svgjs" version="1.1" width="512" height="512" x="0" y="0" viewBox="0 0 480 480" style="enable-background:new 0 0 512 512" xml:space="preserve" class=""><g transform="matrix(0.96,-2.351321854362918e-16,2.351321854362918e-16,0.96,9.600000000000023,4.60000000000008)">
<g xmlns="http://www.w3.org/2000/svg">
	<g>
		<path d="M352,144H128c-4.8,0-8,3.2-8,8v22.4c0,13.6,11.2,25.6,25.6,25.6H200v8c0,13.6,10.4,24,24,24h8v104h-24    c-13.6,0-24,10.4-24,24v16c0,4.8,3.2,8,8,8h96c4.8,0,8-3.2,8-8v-16c0-13.6-10.4-24-24-24h-24V232h8c13.6,0,24-10.4,24-24v-8h54.4    c13.6,0,25.6-11.2,25.6-25.6V152C360,147.2,356.8,144,352,144z M272,352c4.8,0,8,3.2,8,8v8h-80v-8c0-4.8,3.2-8,8-8H272z M264,208    c0,4.8-3.2,8-8,8h-32c-4.8,0-8-3.2-8-8v-8h48V208z M344,174.4c0,4.8-4,9.6-9.6,9.6H145.6c-5.6,0-9.6-4-9.6-9.6V160h208V174.4z" fill="#ffffff" data-original="#000000" style="" class=""/>
	</g>
</g>
<g xmlns="http://www.w3.org/2000/svg">
	<g>
		<path d="M104,224H48V120c0-13.6-10.4-24-24-24H8c-4.8,0-8,3.2-8,8v272c0,4.8,3.2,8,8,8s8-3.2,8-8V272h96v104c0,4.8,3.2,8,8,8    s8-3.2,8-8V248C128,234.4,117.6,224,104,224z M16,112h8c4.8,0,8,3.2,8,8v104H16V112z M112,256H16v-16h88c4.8,0,8,3.2,8,8V256z" fill="#ffffff" data-original="#000000" style="" class=""/>
	</g>
</g>
<g xmlns="http://www.w3.org/2000/svg">
	<g>
		<path d="M472,96h-16c-13.6,0-24,10.4-24,24v104h-56c-13.6,0-24,10.4-24,24v128c0,4.8,3.2,8,8,8s8-3.2,8-8V272h96v104    c0,4.8,3.2,8,8,8s8-3.2,8-8V104C480,99.2,476.8,96,472,96z M464,256h-96v-8c0-4.8,3.2-8,8-8h88V256z M464,224h-16V120    c0-4.8,3.2-8,8-8h8V224z" fill="#ffffff" data-original="#000000" style="" class=""/>
	</g>
</g>
<g xmlns="http://www.w3.org/2000/svg">
</g>
<g xmlns="http://www.w3.org/2000/svg">
</g>
<g xmlns="http://www.w3.org/2000/svg">
</g>
<g xmlns="http://www.w3.org/2000/svg">
</g>
<g xmlns="http://www.w3.org/2000/svg">
</g>
<g xmlns="http://www.w3.org/2000/svg">
</g>
<g xmlns="http://www.w3.org/2000/svg">
</g>
<g xmlns="http://www.w3.org/2000/svg">
</g>
<g xmlns="http://www.w3.org/2000/svg">
</g>
<g xmlns="http://www.w3.org/2000/svg">
</g>
<g xmlns="http://www.w3.org/2000/svg">
</g>
<g xmlns="http://www.w3.org/2000/svg">
</g>
<g xmlns="http://www.w3.org/2000/svg">
</g>
<g xmlns="http://www.w3.org/2000/svg">
</g>
<g xmlns="http://www.w3.org/2000/svg">
</g>
</g></svg>
