<?xml version="1.0"?>
<svg xmlns="http://www.w3.org/2000/svg" xmlns:xlink="http://www.w3.org/1999/xlink" xmlns:svgjs="http://svgjs.com/svgjs" version="1.1" width="512" height="512" x="0" y="0" viewBox="0 0 61 60" style="enable-background:new 0 0 512 512" xml:space="preserve" class=""><g><g xmlns="http://www.w3.org/2000/svg" id="Page-1" fill="none" fill-rule="evenodd"><g id="044---Fruity-Drink" fill="rgb(0,0,0)" fill-rule="nonzero"><path id="Shape" d="m6.942 38.574c-.83902899.263594-1.53333453.8595908-1.921 1.649-.906 1.567-1.509 4.55-.486 8.222.09592581.3442254.36820698.611127.71427782.7001655s.71335497-.0133131.9635-.2685.34514799-.6244401.24922218-.9686655c-.74551751-2.1858699-.6416407-4.5721809.291-6.685.13776823-.3107484.38116351-.5626466.687-.711.34619036-.0893164.61843371-.3565385.71417862-.7010064.09574491-.3444678.00044544-.7138485-.25-.969-.25044545-.2551514-.61798826-.35731-.96417862-.2679936z" fill="#ffffff" data-original="#000000" style=""/><path id="Shape" d="m24.5 36c1.9329966 0 3.5-1.5670034 3.5-3.5s-1.5670034-3.5-3.5-3.5-3.5 1.5670034-3.5 3.5 1.5670034 3.5 3.5 3.5zm0-5c.8284271 0 1.5.6715729 1.5 1.5s-.6715729 1.5-1.5 1.5-1.5-.6715729-1.5-1.5.6715729-1.5 1.5-1.5z" fill="#ffffff" data-original="#000000" style=""/><circle id="Oval" cx="16" cy="11" r="1" fill="#ffffff" data-original="#000000" style=""/><circle id="Oval" cx="23" cy="40" r="1" fill="#ffffff" data-original="#000000" style=""/><circle id="Oval" cx="24" cy="45" r="1" fill="#ffffff" data-original="#000000" style=""/><circle id="Oval" cx="13" cy="14" r="1" fill="#ffffff" data-original="#000000" style=""/><path id="Shape" d="m59.614 53.182-13.257-13.258 2.627-23.595c.0935779-.8481458-.1784444-1.6960105-.7479899-2.3314049-.5695454-.6353943-1.3827178-.9981909-2.2360101-.9975951h-4.782l1.612-4.36 9.743-6.821c.4333537-.32308943.5315253-.93206494.2216555-1.37496779-.3098697-.44290284-.9156066-.55940024-1.3676555-.26303221l-10 7c-.1668632.11652473-.2941994.28118963-.365.472l-1.976 5.347h-16.8c-.6895787-2.1824041-1.8348503-4.19344653-3.36-5.9-.8126891-.81230854-1.8143043-1.41018522-2.915-1.74.4704641-1.01037721.7278092-2.10681696.756-3.221.0208374-.55399179-.1892076-1.09177943-.58-1.485-.391436-.39498347-.9314447-.6063386-1.487-.582-1.6964173-.01128518-3.3372977.60404497-4.608 1.728-.87429071.94426456-1.43342247 2.13696249-1.6 3.413-2.692-2.421-4.028-2.647-4.41-2.647-.56075681-.00409908-1.02257568.43953095-1.041 1-.00947313.26090453.08717224.51451423.26787791.70294558.18070567.18843136.43004967.29560307.69112209.29705442.011 0 .934.167 3.024 2.018-1.23517769.17982258-2.38626955.73164904-3.3 1.582-1.12288218 1.26987794-1.73687488 2.9099222-1.724 4.605-.02150686.5415964.17872523 1.0685515.55446657 1.4592017.37574135.3906502.8945104.6112252 1.43653343.6107983h.077c1.11445571-.0285662 2.21114666-.2858904 3.222-.756.32755765 1.1023708.92691576 2.1047396 1.743 2.915 1.8543666 1.6507409 4.0600468 2.8578806 6.45 3.53l1.05 9.445c-.6829054.506667-1.2813094 1.1182338-1.773 1.812-.1148149-.1368779-.2369957-.2674043-.366-.391-.9875149-.8881839-2.1852759-1.5097806-3.48-1.806-1.835-.453-4.862-.018-7.077.43-.62709722.1267306-1.12667666.6005871-1.2863491 1.2201162-.15967245.6195291.04862947 1.2758293.5363491 1.6898838.722.613 1.569 1.289 2.444 1.907-1.69977633.5929217-3.11673443 1.7994581-3.973 3.383-1.7 2.944-2.032 7.168-.881 11.3 1.723 6.148 6.259 10.48 10.629 10.48.5366446.0006806 1.0712204-.0665194 1.591-.2.3739244-.0967682.7383916-.2269589 1.089-.389.3497613.1624249.7135999.2926302 1.087.389 1.7974204.4097379 3.6830184.1352228 5.289-.77.5649762.6175004 1.3630393.9697364 2.2.971h18.878c.8266046-.0037573 1.6152866-.3472914 2.181-.95 1.7317685.6256228 3.5586915.947026 5.4.95h.057c3.8235144.0021959 7.5202387-1.371076 10.415-3.869.4286544-.3704158.6846285-.9019152.707-1.468.02289-.5533496-.1879611-1.0908203-.581-1.481zm-13.022-10.194-7.544-.009c.1876561-1.9575515.9534761-3.8150132 2.2-5.336zm.006 2-5.332 5.332c-1.2508878-1.522226-2.0233212-3.3805894-2.22-5.341zm1.414 1.412.01 7.552c-1.9606716-.196838-3.8193111-.9692415-5.342-2.22zm2.01 7.551-.01-7.545 5.345 5.345c-1.5208155 1.2464862-3.3777421 2.0129253-5.335 2.202zm-4.022-38.951c.2845045.0005144.5555154.1213525.7460391.3326433.1905237.2112907.2827791.4933151.2539609.7763567l-.746 6.7-2.707 1.356c-2.0462232 1.0075314-4.4252074 1.0937555-6.539.237l3.471-9.402zm-10.844 8.635c-1.0169045-.3436506-2.0826064-.5209299-3.156-.525-1.5437075-.0046607-3.0669344.3532822-4.447 1.045-2.2381477 1.1120359-4.8678523 1.1120359-7.106 0l-2.7-1.349-.747-6.696c-.0294427-.2832746.0625639-.5657548.2531908-.7773506.1906269-.2115959.4620086-.3324768.7468092-.3326494h20.347zm-23.65-20.422c.9224512-.74893877 2.0758092-1.15529956 3.264-1.15.0134095 1.19078038-.3910431 2.34858325-1.143 3.272-.9172834.75653265-2.0741461 1.16141686-3.263 1.142-.0196557-1.18919597.3852426-2.34645349 1.142-3.264zm-7.506 9.627c-.01234396-1.1877005.39171586-2.3422077 1.142-3.263.91580194-.7555919 2.07088299-1.16011845 3.258-1.141.01967945 1.18817609-.3828684 2.3447925-1.136 3.264-.92108006.7502363-2.07612098 1.1536513-3.264 1.14zm6.444 2.74c-.77686956-.7784524-1.26807541-1.7964537-1.394-2.889.87284988-1.2338189 1.3442435-2.70666193 1.35-4.218 1.5056219-.01155063 2.9715008-.48447108 4.2-1.355 1.0991326.1265644 2.1235674.6197586 2.908 1.4 1.1631824 1.31139226 2.0656323 2.8325583 2.659 4.482h-2.167c-.8534868-.0006274-1.6668391.3623042-2.2364195.9979286-.5695805.6356243-.8414643 1.4837637-.7475805 2.3320714l.225 2.021c-1.7679559-.5941592-3.399025-1.5363506-4.797-2.771zm6.364 16.858.316 2.843c-.3869595.1790679-.762357.3821299-1.124.608-.2723485.1714228-.5662492.3059311-.874.4.1742184-1.4199275.7587474-2.7582279 1.682-3.851zm-6.375-.91c.9558137.2157278 1.8426352.6667006 2.58 1.312.3816115.2773041.6052293.7223035.6 1.194l-.009.03c-.091.314-.49.6-1.081.769-.9536942.2262801-1.9487995.2108122-2.895-.045-1.74013883-.6787403-3.33820398-1.6765135-4.712-2.942 1.80529565-.4343285 3.67375674-.5420266 5.517-.318zm5.134 26.333c-.3802642-.1000966-.7459701-.2490007-1.088-.443-.3001346-.1684464-.6658004-.1707129-.968-.006-.349412.1955037-.7219941.3463508-1.109.449-3.763.962-8.159-3.019-9.8-8.88-1.01-3.623-.753-7.272.686-9.76.65665068-1.2577869 1.80023667-2.1913782 3.164-2.583 1.05336002-.2535556 2.16057951-.1580996 3.155.272.4452718.1797945.8727923.4007526 1.277.66.6391475.4068098 1.3531142.6818569 2.1.809v1.611c0 .5522847.4477153 1 1 1s1-.4477153 1-1v-1.611c.7409145-.1255741 1.4493769-.3975366 2.084-.8.094-.059.191-.107.287-.162l2.2 19.782c-1.1942533.726611-2.6230349.9637859-3.988.662zm6.993.139c-.5123746.0030519-.9441593-.3816683-1-.891l-3.548-31.935 1.541.77c2.8010446 1.3929609 6.0929554 1.3929609 8.894 0 1.8738745-.915595 4.0293048-1.0707573 6.015-.433l-10.4 28.142c-.1916428.5180431.0729569 1.0933572.591 1.285s1.0933572-.0729569 1.285-.591l10.374-28.071c2.6308894 1.0554874 5.5871876.9379776 8.126-.323l1.549-.776-1.441 12.936-4.727-4.727c-.3963029-.3838463-.9293846-.5936955-1.481-.583-.566592.0223523-1.0985288.2787248-1.469.708-5.4604248 6.3657396-5.0983138 15.8625484.831 21.794 1.0618055 1.060899 2.2668188 1.968025 3.58 2.695zm35.621-3.383c-2.5468095 2.1891017-5.7956732 3.3897687-9.154 3.383h-.007c-1.8317604.0028692-3.6461988-.3545819-5.34-1.052h-.005-.015c-4.1635905-1.7260406-7.2460582-5.3451681-8.2875159-9.7303783-1.0414577-4.3852101.0845998-9.0038339 3.0275159-12.4176217l1.428 1.428c-1.836533 2.1631116-2.8429554 4.9094148-2.839 7.747.0132063 6.6400024 5.3929965 12.0193456 12.033 12.032 2.8378517.0037559 5.5844029-1.0026275 7.748-2.839z" fill="#ffffff" data-original="#000000" style=""/></g></g></g></svg>
